<!-- Generator: Adobe Illustrator 27.8.1, SVG Export Plug-In . SVG Version: 6.00 Build 0)  -->
<svg version="1.1" id="Layer_1" xmlns="http://www.w3.org/2000/svg" xmlns:xlink="http://www.w3.org/1999/xlink" x="0px" y="0px" viewBox="0 0 176.5 176.5" style="enable-background:new 0 0 176.5 176.5;" xml:space="preserve" width="176.5" height="176.5">
<style type="text/css">
	.st0{fill:#243746;}
	.st1{fill:#FFFFFF;}
</style>
<path class="st0" d="M88.2,0C39.5,0,0,39.5,0,88.3s39.5,88.3,88.2,88.3s88.3-39.5,88.3-88.3S137,0,88.2,0" />
<path class="st1" d="M120.7,137.5c1.1-1.8,2.4-3.5,3.6-5.2c3-4,6.1-8,8.9-12.2c0.6-1,1.4-1.9,1.8-3c0.2-0.4-0.1-0.9-0.2-1.3  c-1.4-3.7-3.2-7.3-4.5-11c-0.4-1.1-0.4-2.3-0.4-3.5c0.1-3.1,0.4-6.2,0.6-9.4c0.4,3.3,0.5,6.7,0.9,10c1.2-2.1,1.7-4.6,2-7  c0.4-3.6,0.3-7.4-1.3-10.6c-1.7-3.6-5.3-6.2-9.1-6.9c-1.8-0.3-3.6-0.2-5.4,0.1c-4.4,0.6-8.8,0.4-13.2,0.3c-3.5,0.1-7.1,0.1-10.5-0.7  c-2.4-0.6-4.7-1.7-6.5-3.4c-1.6-1.6-2.7-3.6-4-5.5c-1.3-1.8-2.7-3.5-4-5.2c-1.7-2.2-3.1-4.6-4.3-7.1c1.2-0.6,2.7-0.9,3.5-2.1  c0.4-0.6,0.2-1.5-0.5-1.8c-1.8-0.8-3.8-0.6-5.7-0.4c-0.6-0.4-1.1-0.8-1.7-1.1l0.3-0.6c2.2,1,4.9,1.4,7,0c2.2-1.3,3.4-3.9,3.3-6.5  c1.9,1.5,4.6,2.1,6.8,1c2.3-1,3.2-3.6,3.5-5.9c2-0.5,3.9-1.1,5.5-2.5c1.5-1.3,2.8-2.9,3.9-4.6c0.7-1.1,1.6-2.2,1.8-3.6  c-1.2-0.4-2.1,0.7-2.8,1.6c-1.1,1.6-2.5,3.1-4.1,4.4c-0.4-3,0.8-6.2,3.3-7.9c0.7-0.5,1.6-1,1.5-1.9c0-0.6-0.7-0.5-1-0.3  c-2.3,1.2-4.4,3.1-5.4,5.6c-0.8,1.8-0.8,3.9-0.4,5.8c-0.7,0.3-1.5,0.5-2.2,0.7c-0.1-1-0.1-1.9-0.3-2.9l-0.7-0.3  c-0.3,0.3-0.6,0.6-0.9,0.9c0.1,0.9,0.2,1.8,0.3,2.7c-3.3,0.9-6.7,1.2-10,2.2c-0.5-0.7-0.6-2.1-1.6-2c-1,0.7-0.3,1.8,0.1,2.6  c-2.8,1.4-5.5,3.3-7.5,5.8c-0.4,0.6-1.1,0.9-1.7,1.2c0.3-2.4,0.9-4.8,2.2-6.8c0.9-1.6,2.3-2.9,3.5-4.2c1.8-1.9,3.8-3.6,5.3-5.7  c1.2-1.6,1.7-3.5,2.1-5.4c0.2-1.2,0.3-2.4,0.1-3.7c-0.6-0.1-1.2,0.3-1.3,0.9c-0.4,1.7-0.6,3.5-1.4,5.1c-0.7,1.5-1.8,2.7-2.9,3.9  c-1.1-1.5-1.4-3.5-0.8-5.2c0.3-0.9,1-1.5,1.5-2.3c0.1-0.5-0.3-1.2-0.9-1.2c-1.8,1.4-2.9,3.7-2.7,5.9c0.1,1.5,0.9,2.8,1.6,4  c-1.9,1.9-4.1,3.6-5.6,5.8c-0.4-1.8-0.1-3.8,1.3-5.2c0.5-0.4,0.4-1.2-0.1-1.6c-0.6-0.2-0.9,0.3-1.3,0.7c-1.2,1.3-1.9,3-1.9,4.8  c0,1.1,0.4,2.2,0.9,3.2c-1.2,2.3-2,4.7-2.2,7.3c-1.1-0.1-2.1-0.8-2.5-1.9c-0.7-2.3-0.1-4.7,1.1-6.8c0.2-0.5,0.7-1.1,0.3-1.6  c-0.2-0.5-1-0.5-1.2,0c-1.5,2.5-2.8,5.5-2.4,8.5c0.2,1.3,1.1,2.3,1.9,3.3c-1.2,0.2-2.5,0-3.3-1c-1.5-2.1-1.4-4.9-0.8-7.2  c0.3-0.7-0.5-1.2-1.1-1.2c-1,2.4-1.4,5.1-0.8,7.7c0.6,2.4,2.9,4.3,5.4,4.2c1.2,0,2.3-0.5,3.3-1.1c0.1,0.5,0.1,1.1,0.2,1.6  c-2.1,0.9-4.2,2.1-6.4,2.8c-2.9,0.9-5.7,2-8.6,3.1c-0.4,0.2-0.9,0.3-1,0.8c-0.1,0.8-0.2,1.6,0.3,2.2c0.7,0.8,1.4,1.6,2.4,1.8  c3.7,1,7.4,1.9,11.1,2.9c0.3,0.1,0.9,0.2,0.8,0.6c0.3,3.1-0.5,6.2-1.3,9.3c-1,3.2-1.2,6.7,0.1,9.9c-2.2-1.5-4.3-3-6.5-4.5  c-1.1-0.8-2.6-0.8-3.9-0.6c-2.4,0.3-4.6,1.1-6.8,2.1c-3.3,1.4-6.4,3.1-9.3,5.3c-1.4,1.1-2.5,3.3-1.6,5c0.9,1.9,1.8,3.8,2.6,5.7  c0.9-0.5,1.8-1,2.7-1.5C40.9,95,40,94.3,40,93.2c-0.1-1.6,1.6-3,3.1-2.4c1.1,0.3,1.7,1.4,1.9,2.5c0.4-0.7,1.1-1.3,1.9-1.3  c1.7-0.3,3.3,1.7,2.6,3.3c-0.3,1.1-1.4,1.6-2.4,1.7c0.9,0.8,1.3,2.3,0.6,3.4c-0.8,1.4-3,1.5-3.9,0.3c-0.6-0.6-0.6-1.5-0.6-2.3  c-0.9,0.4-1.9,0.9-2.9,1.3c0.9,2,1.9,3.9,2.9,5.8c2.8-1.3,5.5-2.7,8.3-4c2.9,7,5.9,14.1,8.9,21.1c-1.3,4.1-2.6,8.2-3.8,12.3  c3.1,1.1,6.1,2.3,9.2,3.4c-1.8,0.9-3.6,1.9-5.1,3.3c-2.6,2.3-4.2,5.6-4.6,9.1c3.6-3.1,8.1-5.1,12.5-6.7c6.3-2.1,12.9-3.2,19.5-3.6  c12.1-0.8,24.3,0.2,36.4,1.8c3.4,0.5,6.8,1,10.2,0.8c-2.9-0.8-5.8-1.2-8.7-2c-2.5-0.7-5.1-1.4-7.6-2  C119.1,138.6,120.2,138.4,120.7,137.5 M89.4,39c-0.6,1.5-1.4,3.1-3.1,3.5c-1.7,0.3-3.2-0.7-4.4-1.8C84.4,40.1,86.9,39.5,89.4,39   M79.1,41.7c0.1,2,0,4.3-1.7,5.7c-1.5,1.2-3.5,0.9-5.2,0.3C73.9,45.1,76.2,42.9,79.1,41.7 M65.8,133.5c-1.6,0.5-3.4-0.5-3.9-2.1  c-0.7-1.7,0.2-3.9,1.9-4.6c2-0.9,4.5,1,4.4,3.1C68.3,131.6,67.2,133.1,65.8,133.5 M75.8,110.5c-0.2,8.4-1,16.8-1.8,25.2  c-1.3,0.3-2.6,0.6-3.9,0.9c1.2-3.2,2.4-6.5,3.5-9.7c-2.9-1.6-5.7-3.3-8.6-4.9c-0.4-0.2-0.9-0.5-1-1c-5.1-12-10.2-24.1-15.3-36.1  c1.6-0.6,3.1-1.2,4.8-1.6c0.7-0.2,1.4,0.2,2,0.6c1,0.7,1.9,1.5,2.7,2.3c2.9,3,5.3,6.4,8,9.5c1.6,1.9,4.1,2.4,6.5,2.3  c-1.7-1.3-3.3-2.9-4.2-4.8c-2.1-4-2.2-8.8-1.2-13.1c0.2,6.1,2.2,12.1,5.7,17.2c0.9,1.4,2.3,2.7,2.5,4.4  C76,104.6,75.8,107.5,75.8,110.5 M94.8,135.1c-5.8-0.4-11.6-0.6-17.4,0.1c1.6-8.2,3.2-16.5,5.1-24.7c0.5-2.2,1-4.5,1.8-6.7  c3.3,0.6,6.8,0.5,10.1,0c2.7-0.3,5.3-1,8-0.7c2.1,0.2,4.1,1.5,5.3,3.3c2.1,2.9,3.1,6.4,4.1,9.8c0.4,1.1-0.4,2.2-1,3.1  c-2,2.8-4.5,5.2-7,7.6C100.9,129.8,97.9,132.5,94.8,135.1 M115.1,138.1c-2-0.3-4-0.8-6-1.1c-3.8-0.7-7.6-1.2-11.5-1.6l-0.1,0.3v-0.4  c1.3-0.1,2.6-0.7,3.6-1.5c3.5-2.7,6.8-5.8,9.9-8.9c2.9-2.9,5.8-5.7,8.3-8.9c-1.5-1.9-2.6-4-3.4-6.2c-0.2-1.6,0.4-3.2,1.1-4.6  c-3.2-1.5-5.6-4.4-6.8-7.7c-1.2-3.1-1.9-6.5-2-9.9c1.6,7,5.4,13.6,10.7,18.4c2.8,3,5.3,6.3,7.5,9.9c0.8,1.4,1.8,3.1,1,4.7  c-1.5,3.5-3.8,6.5-6,9.6C119.4,132.8,117.2,135.4,115.1,138.1" />
</svg>